<?xml version="1.0" encoding="UTF-8" standalone="no"?>
<svg width="28px" height="36px" viewBox="0 0 28 36" version="1.1" xmlns="http://www.w3.org/2000/svg" xmlns:xlink="http://www.w3.org/1999/xlink" xmlns:sketch="http://www.bohemiancoding.com/sketch/ns">
    <!-- Generator: Sketch 3.5.1 (25234) - http://www.bohemiancoding.com/sketch -->
    <title>rewards-full</title>
    <desc>Created with Sketch.</desc>
    <defs></defs>
    <g id="Page-1" stroke="none" stroke-width="1" fill="none" fill-rule="evenodd" sketch:type="MSPage">
        <g id="rewards-full" sketch:type="MSLayerGroup">
            <path d="M22.0325897,26 L25.8400002,32.5925234 L21.5005891,31.8576413 L19.9947572,35.9941708 L17,30.9367845" id="Stroke-2061" stroke="#FFFFFF" stroke-linejoin="round" opacity="0.327891791" sketch:type="MSShapeGroup"></path>
            <path d="M4.80628338,26 L1,32.5925234 L5.33941101,31.8576413 L6.84524299,35.9941708 L9.84000015,30.9367845" id="Stroke-2062" stroke="#FFFFFF" stroke-linejoin="round" opacity="0.327891791" sketch:type="MSShapeGroup"></path>
            <g id="SJCX">
                <path d="M25.5,14 C25.5,20.351 20.352,25.5 14,25.5 C7.648,25.5 2.5,20.351 2.5,14 C2.5,7.649 7.648,2.5 14,2.5 C20.352,2.5 25.5,7.649 25.5,14 L25.5,14 Z" id="Stroke-92" stroke="#FFFFFF" stroke-linejoin="round" sketch:type="MSShapeGroup"></path>
                <path d="M14,27.25 C6.6813913,27.25 0.75,21.3174565 0.75,14 C0.75,6.68254348 6.6813913,0.75 14,0.75 C21.3186087,0.75 27.25,6.68254348 27.25,14 C27.25,21.3174565 21.3186087,27.25 14,27.25 Z" id="Stroke-92" stroke="#FFFFFF" stroke-linejoin="round" opacity="0.518598414" sketch:type="MSShapeGroup"></path>
                <text sketch:type="MSTextLayer" font-family="Avenir Next" font-size="6" font-weight="bold" letter-spacing="0.300000012" fill="#FFFFFF">
                    <tspan x="6" y="16">SJC</tspan>
                    <tspan x="17.796" y="16">X</tspan>
                </text>
            </g>
        </g>
    </g>
</svg>