<?xml version="1.0" encoding="UTF-8" standalone="no"?>
<svg width="28px" height="36px" viewBox="0 0 28 36" version="1.1" xmlns="http://www.w3.org/2000/svg" xmlns:xlink="http://www.w3.org/1999/xlink" xmlns:sketch="http://www.bohemiancoding.com/sketch/ns">
    <!-- Generator: Sketch 3.5.1 (25234) - http://www.bohemiancoding.com/sketch -->
    <title>rewards-free</title>
    <desc>Created with Sketch.</desc>
    <defs></defs>
    <g id="Page-1" stroke="none" stroke-width="1" fill="none" fill-rule="evenodd" sketch:type="MSPage">
        <g id="rewards-free" sketch:type="MSLayerGroup" stroke="#FFFFFF" stroke-linejoin="round">
            <g id="Stroke-91-+-Stroke-92" transform="translate(2.000000, 2.000000)" sketch:type="MSShapeGroup">
                <path d="M23.5,12 C23.5,18.351 18.352,23.5 12,23.5 C5.648,23.5 0.5,18.351 0.5,12 C0.5,5.649 5.648,0.5 12,0.5 C18.352,0.5 23.5,5.649 23.5,12 L23.5,12 Z" id="Stroke-92"></path>
            </g>
            <g id="Stroke-91-+-Stroke-92" sketch:type="MSShapeGroup" opacity="0.526877332">
                <path d="M27.4166667,14 C27.4166667,21.4095 21.4106667,27.4166667 14,27.4166667 C6.58933333,27.4166667 0.583333333,21.4095 0.583333333,14 C0.583333333,6.5905 6.58933333,0.583333333 14,0.583333333 C21.4106667,0.583333333 27.4166667,6.5905 27.4166667,14 L27.4166667,14 Z" id="Stroke-92"></path>
            </g>
            <path d="M22.3654897,25.6328 L26.1729002,32.2253234 L21.8334891,31.4904413 L20.3276572,35.6269708 L17.3329,30.5695845" id="Stroke-2061" opacity="0.32474347" sketch:type="MSShapeGroup"></path>
            <path d="M5.30628338,25.6328 L1.5,32.2253234 L5.83941101,31.4904413 L7.34524299,35.6269708 L10.3400002,30.5695845" id="Stroke-2062" opacity="0.32474347" sketch:type="MSShapeGroup"></path>
            <g id="Stroke-223" transform="translate(8.000000, 9.000000)" sketch:type="MSShapeGroup">
                <path d="M11.75,5.32 C11.75,3.75368 10.595,2.46568 9.16,2.52504 C8.599,1.19952 7.3965,0.28 6,0.28 C4.137,0.28 2.619,1.9096 2.5105,3.96424 C1.344,3.69208 0.25,4.68664 0.25,6.02 C0.25,8.1536 2.25,8.12 2.25,8.12 L9.5,8.12 C9.5,8.12 11.75,7.79184 11.75,5.32 L11.75,5.32 Z"></path>
            </g>
        </g>
    </g>
</svg>