<?xml version="1.0" encoding="UTF-8" standalone="no"?>
<svg width="28px" height="28px" viewBox="0 0 28 28" version="1.1" xmlns="http://www.w3.org/2000/svg" xmlns:xlink="http://www.w3.org/1999/xlink" xmlns:sketch="http://www.bohemiancoding.com/sketch/ns">
    <!-- Generator: Sketch 3.5.1 (25234) - http://www.bohemiancoding.com/sketch -->
    <title>SJCX</title>
    <desc>Created with Sketch.</desc>
    <defs></defs>
    <g id="Page-1" stroke="none" stroke-width="1" fill="none" fill-rule="evenodd" sketch:type="MSPage">
        <g id="SJCX" sketch:type="MSLayerGroup">
            <path d="M25.5,14 C25.5,20.351 20.352,25.5 14,25.5 C7.648,25.5 2.5,20.351 2.5,14 C2.5,7.649 7.648,2.5 14,2.5 C20.352,2.5 25.5,7.649 25.5,14 L25.5,14 Z" id="Stroke-92" stroke="#003366" stroke-linejoin="round" sketch:type="MSShapeGroup"></path>
            <path d="M14,27.25 C6.6813913,27.25 0.75,21.3174565 0.75,14 C0.75,6.68254348 6.6813913,0.75 14,0.75 C21.3186087,0.75 27.25,6.68254348 27.25,14 C27.25,21.3174565 21.3186087,27.25 14,27.25 Z" id="Stroke-92" stroke="#2684FF" stroke-linejoin="round" sketch:type="MSShapeGroup"></path>
            <text sketch:type="MSTextLayer" font-family="Avenir Next" font-size="6" font-weight="bold" letter-spacing="0.300000012" fill="#003366">
                <tspan x="6" y="16">SJC</tspan>
                <tspan x="17.796" y="16">X</tspan>
            </text>
        </g>
    </g>
</svg>